# Rhino

g object_1
v -16.19891738891602 -9.281840324401856 0
v -16.19891738891602 -9.281840324401856 50
v -6.198917388916016 -9.281840324401856 0
v -6.198917388916016 -9.281840324401856 50
v -6.198917388916016 -9.281840324401856 25
v -16.19891738891602 -9.281840324401856 25
v -6.198917388916016 20.71815872192383 0
v -6.198917388916016 20.71815872192383 50
v -16.19891738891602 20.71815872192383 0
v -16.19891738891602 20.71815872192383 50
v -6.198917388916016 20.71815872192383 25
v -16.19891738891602 20.71815872192383 25
v -16.19891738891602 20.71815872192383 0
v -16.19891738891602 20.71815872192383 50
v -16.19891738891602 -9.281840324401856 0
v -16.19891738891602 -9.281840324401856 50
v -16.19891738891602 -9.281840324401856 25
v -16.19891738891602 20.71815872192383 25
v -16.19891738891602 5.718159675598145 0
v -16.19891738891602 15.71815967559815 50
v -16.19891738891602 -4.281840324401856 50
v -16.19891738891602 -4.281840324401856 40
v -16.19891738891602 -4.281840324401856 30
v -16.19891738891602 15.71815967559815 30
v -16.19891738891602 15.71815967559815 40
v -16.19891738891602 5.718159675598145 30
v -16.19891738891602 -9.281840324401856 0
v -16.19891738891602 20.71815872192383 0
v -6.198917388916016 -9.281840324401856 0
v -6.198917388916016 20.71815872192383 0
v -6.198917388916016 -4.281840324401856 0
v -16.19891738891602 5.718159675598145 0
v -11.19891738891602 -4.281840324401856 0
v -11.19891738891602 15.71815967559815 0
v -6.198917388916016 15.71815967559815 0
v -11.19891738891602 5.718159675598145 0
v -16.19891738891602 -9.281840324401856 50
v -16.19891738891602 20.71815872192383 50
v -6.198917388916016 -9.281840324401856 50
v -6.198917388916016 20.71815872192383 50
v -6.198917388916016 5.718159675598145 50
v -16.19891738891602 15.71815967559815 50
v -11.19891738891602 -4.281840324401856 50
v -16.19891738891602 -4.281840324401856 50
v -11.19891738891602 15.71815967559815 50
v -11.19891738891602 5.718159675598145 50
v -16.19891738891602 -4.281840324401856 30
v -16.19891738891602 -4.281840324401856 50
v -11.19891738891602 -4.281840324401856 30
v -11.19891738891602 -4.281840324401856 50
v -11.19891738891602 -4.281840324401856 40
v -16.19891738891602 -4.281840324401856 40
v -11.19891738891602 -4.281840324401856 30
v -11.19891738891602 -4.281840324401856 50
v -11.19891738891602 15.71815967559815 30
v -11.19891738891602 15.71815967559815 50
v -11.19891738891602 -4.281840324401856 40
v -11.19891738891602 5.718159675598145 30
v -11.19891738891602 15.71815967559815 40
v -11.19891738891602 5.718159675598145 50
v -11.19891738891602 15.71815967559815 30
v -11.19891738891602 15.71815967559815 50
v -16.19891738891602 15.71815967559815 30
v -16.19891738891602 15.71815967559815 50
v -11.19891738891602 15.71815967559815 40
v -16.19891738891602 15.71815967559815 40
v -16.19891738891602 -4.281840324401856 30
v -16.19891738891602 15.71815967559815 30
v -11.19891738891602 -4.281840324401856 30
v -11.19891738891602 15.71815967559815 30
v -11.19891738891602 5.718159675598145 30
v -16.19891738891602 5.718159675598145 30
v -11.19891738891602 -4.281840324401856 0
v -11.19891738891602 -4.281840324401856 20
v -6.198917388916016 -4.281840324401856 0
v -6.198917388916016 -4.281840324401856 20
v -11.19891738891602 -4.281840324401856 10
v -6.198917388916016 -4.281840324401856 10
v -6.198917388916016 15.71815967559815 0
v -6.198917388916016 15.71815967559815 20
v -11.19891738891602 15.71815967559815 0
v -11.19891738891602 15.71815967559815 20
v -11.19891738891602 15.71815967559815 10
v -6.198917388916016 15.71815967559815 10
v -11.19891738891602 15.71815967559815 0
v -11.19891738891602 15.71815967559815 20
v -11.19891738891602 -4.281840324401856 0
v -11.19891738891602 -4.281840324401856 20
v -11.19891738891602 -4.281840324401856 10
v -11.19891738891602 15.71815967559815 10
v -11.19891738891602 5.718159675598145 20
v -11.19891738891602 5.718159675598145 0
v -11.19891738891602 -4.281840324401856 20
v -11.19891738891602 15.71815967559815 20
v -6.198917388916016 -4.281840324401856 20
v -6.198917388916016 15.71815967559815 20
v -11.19891738891602 5.718159675598145 20
v -6.198917388916016 5.718159675598145 20
v -6.198917388916016 -9.281840324401856 0
v -6.198917388916016 -9.281840324401856 50
v -6.198917388916016 20.71815872192383 0
v -6.198917388916016 20.71815872192383 50
v -6.198917388916016 -9.281840324401856 25
v -6.198917388916016 -4.281840324401856 0
v -6.198917388916016 20.71815872192383 25
v -6.198917388916016 5.718159675598145 50
v -6.198917388916016 -4.281840324401856 10
v -6.198917388916016 -4.281840324401856 20
v -6.198917388916016 15.71815967559815 20
v -6.198917388916016 15.71815967559815 10
v -6.198917388916016 15.71815967559815 0
v -6.198917388916016 5.718159675598145 20
vt 0.699999988079071 0
vt 0.699999988079071 0.5
vt 0.798535168170929 0
vt 0.798535168170929 0.5
vt 0.798535168170929 0.25
vt 0.699999988079071 0.25
vt 0.5 0.1000000014901161
vt 0 0.1000000014901161
vt 0.5 0.1985351592302322
vt 0 0.1985351592302322
vt 0.25 0.1000000014901161
vt 0.25 0.1985351592302322
vt 0.4000000059604645 0.5
vt 0.4000000059604645 0.99853515625
vt 0.698535144329071 0.5
vt 0.698535144329071 0.99853515625
vt 0.698535144329071 0.749267578125
vt 0.4000000059604645 0.749267578125
vt 0.549267590045929 0.5
vt 0.449755847454071 0.99853515625
vt 0.6487792730331421 0.99853515625
vt 0.6487792730331421 0.8988281488418579
vt 0.6487792730331421 0.799121081829071
vt 0.449755847454071 0.799121081829071
vt 0.449755847454071 0.8988281488418579
vt 0.549267590045929 0.799121081829071
vt 0.8999999761581421 0
vt 0.8999999761581421 0.300000011920929
vt 0.99853515625 0
vt 0.99853515625 0.300000011920929
vt 0.99853515625 0.05000000074505806
vt 0.8999999761581421 0.1500000059604645
vt 0.949267566204071 0.05000000074505806
vt 0.949267566204071 0.25
vt 0.99853515625 0.25
vt 0.949267566204071 0.1500000059604645
vt 0.800000011920929 0
vt 0.800000011920929 0.300000011920929
vt 0.8985351324081421 0
vt 0.8985351324081421 0.300000011920929
vt 0.8985351324081421 0.1500000059604645
vt 0.800000011920929 0.25
vt 0.8492676019668579 0.05000000074505806
vt 0.800000011920929 0.05000000074505806
vt 0.8492676019668579 0.25
vt 0.8492676019668579 0.1500000059604645
vt 0.05000000074505806 0.5
vt 0.05000000074505806 0.699999988079071
vt 0.09853515774011612 0.5
vt 0.09853515774011612 0.699999988079071
vt 0.09853515774011612 0.6000000238418579
vt 0.05000000074505806 0.6000000238418579
vt 0.3985351622104645 0.75
vt 0.2000000029802322 0.75
vt 0.3985351622104645 0.949999988079071
vt 0.2000000029802322 0.949999988079071
vt 0.299267590045929 0.75
vt 0.3985351622104645 0.8500000238418579
vt 0.299267590045929 0.949999988079071
vt 0.2000000029802322 0.8500000238418579
vt 0 0.5
vt 0 0.699999988079071
vt 0.04853515699505806 0.5
vt 0.04853515699505806 0.699999988079071
vt 0 0.6000000238418579
vt 0.04853515699505806 0.6000000238418579
vt 0.1500000059604645 0.5
vt 0.1500000059604645 0.699999988079071
vt 0.1985351592302322 0.5
vt 0.1985351592302322 0.699999988079071
vt 0.1985351592302322 0.6000000238418579
vt 0.1500000059604645 0.6000000238418579
vt 0.1000000014901161 0.5
vt 0.1000000014901161 0.699999988079071
vt 0.1485351622104645 0.5
vt 0.1485351622104645 0.699999988079071
vt 0.1000000014901161 0.6000000238418579
vt 0.1485351622104645 0.6000000238418579
vt 0.2000000029802322 0.05000000074505806
vt 0 0.05000000074505806
vt 0.2000000029802322 0.09853515774011612
vt 0 0.09853515774011612
vt 0.1000000014901161 0.09853515774011612
vt 0.1000000014901161 0.05000000074505806
vt 0.3985351622104645 0.5
vt 0.2000000029802322 0.5
vt 0.3985351622104645 0.699999988079071
vt 0.2000000029802322 0.699999988079071
vt 0.299267590045929 0.699999988079071
vt 0.299267590045929 0.5
vt 0.2000000029802322 0.6000000238418579
vt 0.3985351622104645 0.6000000238418579
vt 0.2000000029802322 0
vt 0 0
vt 0.2000000029802322 0.04853515699505806
vt 0 0.04853515699505806
vt 0.1000000014901161 0
vt 0.1000000014901161 0.04853515699505806
vt 0.5 0.2000000029802322
vt 0 0.2000000029802322
vt 0.5 0.49853515625
vt 0 0.49853515625
vt 0.25 0.2000000029802322
vt 0.5 0.249755859375
vt 0.25 0.49853515625
vt 0 0.3492675721645355
vt 0.4000000059604645 0.249755859375
vt 0.300000011920929 0.249755859375
vt 0.300000011920929 0.448779284954071
vt 0.4000000059604645 0.448779284954071
vt 0.5 0.448779284954071
vt 0.300000011920929 0.3492675721645355
vn 0 -1 0
vn 0 -1 0
vn 0 -1 0
vn 0 -1 0
vn 0 -1 0
vn 0 -1 0
vn 0 1 0
vn 0 1 0
vn 0 1 0
vn 0 1 0
vn 0 1 0
vn 0 1 0
vn -1 0 0
vn -1 0 0
vn -1 0 0
vn -1 0 0
vn -1 0 0
vn -1 0 0
vn -1 0 0
vn -1 0 0
vn -1 0 0
vn -1 0 0
vn -1 0 0
vn -1 0 0
vn -1 0 0
vn -1 0 0
vn 0 0 -1
vn 0 0 -1
vn 0 0 -1
vn 0 0 -1
vn 0 0 -1
vn 0 0 -1
vn 0 0 -1
vn 0 0 -1
vn 0 0 -1
vn 0 0 -1
vn 0 0 1
vn 0 0 1
vn 0 0 1
vn 0 0 1
vn 0 0 1
vn 0 0 1
vn 0 0 1
vn 0 0 1
vn 0 0 1
vn 0 0 1
vn 0 1 0
vn 0 1 0
vn 0 1 0
vn 0 1 0
vn 0 1 0
vn 0 1 0
vn -1 0 0
vn -1 0 0
vn -1 0 0
vn -1 0 0
vn -1 0 0
vn -1 0 0
vn -1 0 0
vn -1 0 0
vn 0 -1 0
vn 0 -1 0
vn 0 -1 0
vn 0 -1 0
vn 0 -1 0
vn 0 -1 0
vn 0 0 1
vn 0 0 1
vn 0 0 1
vn 0 0 1
vn 0 0 1
vn 0 0 1
vn 0 1 0
vn 0 1 0
vn 0 1 0
vn 0 1 0
vn 0 1 0
vn 0 1 0
vn 0 -1 0
vn 0 -1 0
vn 0 -1 0
vn 0 -1 0
vn 0 -1 0
vn 0 -1 0
vn 1 0 0
vn 1 0 0
vn 1 0 0
vn 1 0 0
vn 1 0 0
vn 1 0 0
vn 1 0 0
vn 1 0 0
vn 0 0 -1
vn 0 0 -1
vn 0 0 -1
vn 0 0 -1
vn 0 0 -1
vn 0 0 -1
vn 1 0 0
vn 1 0 0
vn 1 0 0
vn 1 0 0
vn 1 0 0
vn 1 0 0
vn 1 0 0
vn 1 0 0
vn 1 -6.938893903907228e-18 0
vn 1 0 0
vn 1 0 0
vn 1 -6.938893903907228e-18 0
vn 1 0 0
vn 1 0 0
f 6/6/6 1/1/1 3/3/3 5/5/5
f 2/2/2 6/6/6 5/5/5 4/4/4
f 11/11/11 7/7/7 9/9/9 12/12/12
f 8/8/8 11/11/11 12/12/12 10/10/10
f 18/18/18 13/13/13 19/19/19
f 24/24/24 18/18/18 19/19/19
f 14/14/14 18/18/18 25/25/25
f 24/24/24 25/25/25 18/18/18
f 14/14/14 25/25/25 20/20/20
f 19/19/19 26/26/26 24/24/24
f 23/23/23 26/26/26 19/19/19
f 17/17/17 19/19/19 15/15/15
f 23/23/23 19/19/19 17/17/17
f 22/22/22 23/23/23 17/17/17
f 22/22/22 16/16/16 21/21/21
f 22/22/22 17/17/17 16/16/16
f 32/32/32 36/36/36 33/33/33 27/27/27
f 29/29/29 27/27/27 33/33/33
f 28/28/28 34/34/34 36/36/36 32/32/32
f 30/30/30 35/35/35 34/34/34
f 28/28/28 30/30/30 34/34/34
f 29/29/29 33/33/33 31/31/31
f 43/43/43 44/44/44 37/37/37
f 45/45/45 38/38/38 42/42/42
f 43/43/43 37/37/37 39/39/39
f 46/46/46 43/43/43 39/39/39 41/41/41
f 41/41/41 40/40/40 45/45/45 46/46/46
f 38/38/38 45/45/45 40/40/40
f 52/52/52 51/51/51 49/49/49 47/47/47
f 48/48/48 50/50/50 51/51/51 52/52/52
f 57/57/57 58/58/58 53/53/53
f 57/57/57 54/54/54 60/60/60
f 59/59/59 58/58/58 57/57/57
f 57/57/57 60/60/60 59/59/59
f 59/59/59 60/60/60 56/56/56
f 55/55/55 58/58/58 59/59/59
f 65/65/65 66/66/66 63/63/63 61/61/61
f 62/62/62 64/64/64 66/66/66 65/65/65
f 72/72/72 67/67/67 69/69/69 71/71/71
f 68/68/68 72/72/72 71/71/71 70/70/70
f 77/77/77 78/78/78 75/75/75 73/73/73
f 74/74/74 76/76/76 78/78/78 77/77/77
f 84/84/84 83/83/83 81/81/81 79/79/79
f 80/80/80 82/82/82 83/83/83 84/84/84
f 90/90/90 92/92/92 85/85/85
f 90/90/90 86/86/86 91/91/91
f 89/89/89 92/92/92 90/90/90
f 90/90/90 91/91/91 89/89/89
f 89/89/89 91/91/91 88/88/88
f 87/87/87 92/92/92 89/89/89
f 97/97/97 98/98/98 95/95/95 93/93/93
f 94/94/94 96/96/96 98/98/98 97/97/97
f 107/107/107 99/99/99 104/104/104
f 103/103/103 99/99/99 107/107/107 108/108/108
f 103/103/103 106/106/106 100/100/100
f 108/108/108 106/106/106 103/103/103
f 112/112/112 106/106/106 108/108/108
f 110/110/110 111/111/111 101/101/101
f 101/101/101 105/105/105 109/109/109 110/110/110
f 105/105/105 106/106/106 109/109/109
f 109/109/109 106/106/106 112/112/112
f 106/106/106 105/105/105 102/102/102
